<svg width="11" height="13" viewBox="0 0 11 13" fill="none" xmlns="http://www.w3.org/2000/svg">
<path d="M2.4 5.43184H3.6V6.62958H2.4V5.43184ZM10.8 2.43748V10.8217C10.8 11.4804 10.26 12.0194 9.6 12.0194H1.2C0.88174 12.0194 0.576515 11.8932 0.351472 11.6686C0.126428 11.444 0 11.1393 0 10.8217L0.00599999 2.43748C0.00599999 1.77872 0.534 1.23974 1.2 1.23974H1.8V0.0419922H3V1.23974H7.8V0.0419922H9V1.23974H9.6C10.26 1.23974 10.8 1.77872 10.8 2.43748ZM1.2 3.63522H9.6V2.43748H1.2V3.63522ZM9.6 10.8217V4.83297H1.2V10.8217H9.6ZM7.2 6.62958H8.4V5.43184H7.2V6.62958ZM4.8 6.62958H6V5.43184H4.8V6.62958Z" fill="#555555"/>
</svg>
