<svg width="32" height="33" viewBox="0 0 32 33" fill="none" xmlns="http://www.w3.org/2000/svg">
<path d="M16 32.3013C24.8366 32.3013 32 25.1378 32 16.3013C32 7.46471 24.8366 0.30127 16 0.30127C7.16344 0.30127 0 7.46471 0 16.3013C0 25.1378 7.16344 32.3013 16 32.3013Z" fill="#27A487"/>
<path d="M25.8012 11.7998C25.1156 12.1038 24.378 12.3095 23.6045 12.4013C24.3943 11.9281 25.0004 11.1794 25.2864 10.2859C24.5474 10.7242 23.7286 11.0422 22.8578 11.2137C22.1602 10.4707 21.1662 10.0063 20.0656 10.0063C17.9538 10.0063 16.2411 11.7191 16.2411 13.8308C16.2411 14.1306 16.2751 14.4223 16.3407 14.7024C13.1622 14.543 10.344 13.0205 8.4576 10.706C8.12846 11.2707 7.93965 11.9281 7.93965 12.6289C7.93965 13.9554 8.61532 15.1265 9.64096 15.8122C9.01434 15.7925 8.42423 15.6205 7.90885 15.3333C7.90856 15.3496 7.90856 15.3658 7.90856 15.3818C7.90856 17.2348 9.2274 18.7804 10.9766 19.1315C10.656 19.2194 10.3175 19.2659 9.96924 19.2659C9.72224 19.2659 9.48295 19.2422 9.24964 19.1977C9.73622 20.7167 11.1483 21.8225 12.8222 21.8536C11.5131 22.8795 9.86428 23.4908 8.07199 23.4908C7.76396 23.4908 7.45878 23.4728 7.16016 23.4371C8.85177 24.5227 10.8625 25.1556 13.0222 25.1556C20.0567 25.1556 23.9037 19.328 23.9037 14.2737C23.9037 14.108 23.9 13.9429 23.8926 13.7792C24.6404 13.2401 25.2887 12.5667 25.8012 11.7998Z" fill="#F1F2F2"/>
</svg>
