<svg width="32" height="33" viewBox="0 0 32 33" fill="none" xmlns="http://www.w3.org/2000/svg">
<path d="M16 32.3013C24.8366 32.3013 32 25.1378 32 16.3013C32 7.46471 24.8366 0.30127 16 0.30127C7.16344 0.30127 0 7.46471 0 16.3013C0 25.1378 7.16344 32.3013 16 32.3013Z" fill="#27A487"/>
<path d="M20.7992 8.50146H11.1992C9.53255 8.50146 8.19922 9.83479 8.19922 11.5015V21.1015C8.19922 22.7681 9.53255 24.1015 11.1992 24.1015H20.7992C22.4659 24.1015 23.7992 22.7681 23.7992 21.1015V11.5015C23.7992 9.83479 22.4659 8.50146 20.7992 8.50146ZM21.6659 10.3015H21.9992V12.9681H19.3326V10.3015H21.6659ZM13.7992 14.7015C14.2659 14.0348 15.1326 13.5681 15.9992 13.5681C16.8659 13.5681 17.7326 14.0348 18.1992 14.7015C18.5326 15.1681 18.7326 15.7015 18.7326 16.3015C18.7326 17.8348 17.4659 19.0348 15.9992 19.0348C14.5326 19.0348 13.2659 17.8348 13.2659 16.3015C13.2659 15.7015 13.4659 15.1681 13.7992 14.7015ZM22.2659 21.1015C22.2659 21.9015 21.5992 22.5681 20.7992 22.5681H11.1992C10.3992 22.5681 9.73255 21.9015 9.73255 21.1015V14.7015H12.0659C11.8659 15.1681 11.7326 15.7681 11.7326 16.3015C11.7326 18.6348 13.6659 20.5681 15.9992 20.5681C18.3326 20.5681 20.2659 18.6348 20.2659 16.3015C20.2659 15.7681 20.1325 15.1681 19.9326 14.7015H22.2659L22.2659 21.1015Z" fill="white"/>
</svg>
