<svg width="11" height="13" viewBox="0 0 11 13" fill="none" xmlns="http://www.w3.org/2000/svg">
<path d="M2.4 5.87923H3.6V7.07697H2.4V5.87923ZM10.8 2.88487V11.2691C10.8 11.9278 10.26 12.4668 9.6 12.4668H1.2C0.88174 12.4668 0.576515 12.3406 0.351472 12.116C0.126428 11.8914 0 11.5867 0 11.2691L0.00599999 2.88487C0.00599999 2.22611 0.534 1.68712 1.2 1.68712H1.8V0.48938H3V1.68712H7.8V0.48938H9V1.68712H9.6C10.26 1.68712 10.8 2.22611 10.8 2.88487ZM1.2 4.08261H9.6V2.88487H1.2V4.08261ZM9.6 11.2691V5.28035H1.2V11.2691H9.6ZM7.2 7.07697H8.4V5.87923H7.2V7.07697ZM4.8 7.07697H6V5.87923H4.8V7.07697Z" fill="#555555"/>
</svg>
