<svg width="12" height="13" viewBox="0 0 12 13" fill="none" xmlns="http://www.w3.org/2000/svg">
<path d="M6 0.0419922C2.6916 0.0419922 0 2.72853 0 6.03071C0 9.33289 2.6916 12.0194 6 12.0194C9.3084 12.0194 12 9.33289 12 6.03071C12 2.72853 9.3084 0.0419922 6 0.0419922ZM6 10.8217C3.3534 10.8217 1.2 8.67233 1.2 6.03071C1.2 3.38909 3.3534 1.23974 6 1.23974C8.6466 1.23974 10.8 3.38909 10.8 6.03071C10.8 8.67233 8.6466 10.8217 6 10.8217Z" fill="#555555"/>
<path d="M6.60039 3.03613H5.40039V6.27842L7.37619 8.25051L8.22459 7.4037L6.60039 5.78256V3.03613Z" fill="#555555"/>
</svg>
