<svg width="32" height="33" viewBox="0 0 32 33" fill="none" xmlns="http://www.w3.org/2000/svg">
<path d="M16 0.30127C7.1808 0.30127 0 7.48207 0 16.3013C0 25.1205 7.1808 32.3013 16 32.3013C24.8192 32.3013 32 25.1269 32 16.3013C32 7.47567 24.8256 0.30127 16 0.30127ZM20.4352 9.79247C20.4352 9.92687 20.3264 10.0357 20.192 10.0357H18.2656C17.792 10.0357 17.408 10.4197 17.408 10.8933V12.9093H20.1472C20.1536 12.9093 20.16 12.9093 20.1664 12.9093C20.3008 12.9221 20.3968 13.0373 20.384 13.1717L20.1408 16.0133C20.128 16.1413 20.0256 16.2373 19.8976 16.2373H17.4016V25.6645C17.4016 25.7989 17.2928 25.9077 17.1584 25.9077H13.7152C13.5808 25.9077 13.472 25.7989 13.472 25.6645V16.3781V16.2245H11.7504C11.616 16.2245 11.5072 16.1157 11.5072 15.9813V13.1397C11.5072 13.0053 11.616 12.8965 11.7504 12.8965H13.472V10.1573C13.472 8.25007 15.0208 6.70127 16.928 6.70127H20.1792C20.3136 6.70127 20.4224 6.81007 20.4224 6.94447V9.79247H20.4352Z" fill="#27A487"/>
</svg>
