<svg width="12" height="13" viewBox="0 0 12 13" fill="none" xmlns="http://www.w3.org/2000/svg">
<path d="M6 0.48938C2.6916 0.48938 0 3.17592 0 6.4781C0 9.78028 2.6916 12.4668 6 12.4668C9.3084 12.4668 12 9.78028 12 6.4781C12 3.17592 9.3084 0.48938 6 0.48938ZM6 11.2691C3.3534 11.2691 1.2 9.11972 1.2 6.4781C1.2 3.83647 3.3534 1.68712 6 1.68712C8.6466 1.68712 10.8 3.83647 10.8 6.4781C10.8 9.11972 8.6466 11.2691 6 11.2691Z" fill="#555555"/>
<path d="M6.60039 3.48376H5.40039V6.72606L7.37619 8.69814L8.22459 7.85134L6.60039 6.23019V3.48376Z" fill="#555555"/>
</svg>
