<svg width="19" height="18" viewBox="0 0 19 18" fill="none" xmlns="http://www.w3.org/2000/svg">
<path d="M12.9086 1.88501C13.8839 1.88782 14.8185 2.26216 15.5082 2.92629C16.1979 3.59042 16.5866 4.49037 16.5895 5.42959V12.518C16.5866 13.4572 16.1979 14.3572 15.5082 15.0213C14.8185 15.6854 13.8839 16.0598 12.9086 16.0626H5.54757C4.57223 16.0598 3.63766 15.6854 2.94799 15.0213C2.25832 14.3572 1.86957 13.4572 1.86666 12.518V5.42959C1.86957 4.49037 2.25832 3.59042 2.94799 2.92629C3.63766 2.26216 4.57223 1.88782 5.54757 1.88501H12.9086ZM12.9086 0.467407H5.54757C2.71334 0.467407 0.394531 2.70033 0.394531 5.42959V12.518C0.394531 15.2473 2.71334 17.4802 5.54757 17.4802H12.9086C15.7428 17.4802 18.0616 15.2473 18.0616 12.518V5.42959C18.0616 2.70033 15.7428 0.467407 12.9086 0.467407Z" fill="#2E4049"/>
<path d="M14.014 5.42994C13.7956 5.42994 13.5821 5.36758 13.4005 5.25074C13.2189 5.13391 13.0774 4.96784 12.9938 4.77355C12.9103 4.57926 12.8884 4.36546 12.931 4.1592C12.9736 3.95294 13.0788 3.76348 13.2332 3.61478C13.3876 3.46607 13.5844 3.3648 13.7986 3.32378C14.0128 3.28275 14.2348 3.30381 14.4365 3.38428C14.6383 3.46476 14.8108 3.60105 14.9321 3.77591C15.0534 3.95077 15.1182 4.15634 15.1182 4.36664C15.1185 4.50636 15.0901 4.64476 15.0348 4.7739C14.9794 4.90305 14.8981 5.02038 14.7955 5.11918C14.6929 5.21797 14.571 5.29629 14.4369 5.34961C14.3028 5.40294 14.1591 5.43024 14.014 5.42994ZM9.22928 6.13855C9.81167 6.13855 10.381 6.30486 10.8652 6.61644C11.3495 6.92802 11.7269 7.37087 11.9498 7.88901C12.1727 8.40715 12.231 8.97729 12.1173 9.52734C12.0037 10.0774 11.7233 10.5826 11.3115 10.9792C10.8996 11.3758 10.375 11.6458 9.80375 11.7552C9.23254 11.8647 8.64047 11.8085 8.10241 11.5939C7.56435 11.3793 7.10445 11.0158 6.78089 10.5495C6.45733 10.0832 6.28463 9.53497 6.28463 8.97414C6.28546 8.22234 6.59597 7.50157 7.14802 6.96997C7.70007 6.43836 8.44856 6.13936 9.22928 6.13855ZM9.22928 4.72095C8.35572 4.72095 7.50178 4.97039 6.77545 5.43774C6.04911 5.90509 5.483 6.56935 5.14871 7.34652C4.81441 8.12368 4.72695 8.97886 4.89737 9.8039C5.06779 10.6289 5.48845 11.3868 6.10615 11.9816C6.72384 12.5764 7.51084 12.9815 8.36761 13.1456C9.22438 13.3097 10.1124 13.2255 10.9195 12.9036C11.7266 12.5817 12.4164 12.0365 12.9017 11.3371C13.387 10.6377 13.6461 9.81534 13.6461 8.97414C13.6461 7.84613 13.1807 6.76431 12.3524 5.96668C11.5241 5.16905 10.4007 4.72095 9.22928 4.72095Z" fill="#2E4049"/>
</svg>
