<svg width="19" height="18" viewBox="0 0 19 18" fill="none" xmlns="http://www.w3.org/2000/svg">
<path d="M12.9086 1.88489C13.8839 1.88769 14.8185 2.26204 15.5082 2.92617C16.1979 3.5903 16.5866 4.49025 16.5895 5.42947V12.5179C16.5866 13.4571 16.1979 14.357 15.5082 15.0212C14.8185 15.6853 13.8839 16.0596 12.9086 16.0625H5.54757C4.57223 16.0596 3.63766 15.6853 2.94799 15.0212C2.25832 14.357 1.86957 13.4571 1.86666 12.5179V5.42947C1.86957 4.49025 2.25832 3.5903 2.94799 2.92617C3.63766 2.26204 4.57223 1.88769 5.54757 1.88489H12.9086ZM12.9086 0.467285H5.54757C2.71334 0.467285 0.394531 2.70021 0.394531 5.42947V12.5179C0.394531 15.2471 2.71334 17.4801 5.54757 17.4801H12.9086C15.7428 17.4801 18.0616 15.2471 18.0616 12.5179V5.42947C18.0616 2.70021 15.7428 0.467285 12.9086 0.467285Z" fill="#2E4049"/>
<path d="M14.014 5.42982C13.7956 5.42982 13.5821 5.36746 13.4005 5.25062C13.2189 5.13378 13.0774 4.96772 12.9938 4.77343C12.9103 4.57914 12.8884 4.36534 12.931 4.15908C12.9736 3.95282 13.0788 3.76336 13.2332 3.61466C13.3876 3.46595 13.5844 3.36468 13.7986 3.32365C14.0128 3.28263 14.2348 3.30368 14.4365 3.38416C14.6383 3.46464 14.8108 3.60093 14.9321 3.77578C15.0534 3.95064 15.1182 4.15622 15.1182 4.36652C15.1185 4.50624 15.0901 4.64464 15.0348 4.77378C14.9794 4.90292 14.8981 5.02026 14.7955 5.11906C14.6929 5.21785 14.571 5.29616 14.4369 5.34949C14.3028 5.40282 14.1591 5.43012 14.014 5.42982ZM9.22928 6.13843C9.81167 6.13843 10.381 6.30474 10.8652 6.61631C11.3495 6.92789 11.7269 7.37075 11.9498 7.88889C12.1727 8.40702 12.231 8.97716 12.1173 9.52722C12.0037 10.0773 11.7233 10.5825 11.3115 10.9791C10.8996 11.3756 10.375 11.6457 9.80375 11.7551C9.23254 11.8645 8.64047 11.8084 8.10241 11.5938C7.56435 11.3791 7.10445 11.0157 6.78089 10.5494C6.45733 10.0831 6.28463 9.53485 6.28463 8.97402C6.28546 8.22222 6.59597 7.50145 7.14802 6.96984C7.70007 6.43824 8.44856 6.13924 9.22928 6.13843ZM9.22928 4.72083C8.35572 4.72083 7.50178 4.97027 6.77545 5.43762C6.04911 5.90497 5.483 6.56922 5.14871 7.34639C4.81441 8.12356 4.72695 8.97874 4.89737 9.80378C5.06779 10.6288 5.48845 11.3867 6.10615 11.9815C6.72384 12.5763 7.51084 12.9814 8.36761 13.1455C9.22438 13.3096 10.1124 13.2254 10.9195 12.9035C11.7266 12.5815 12.4164 12.0364 12.9017 11.337C13.387 10.6375 13.6461 9.81522 13.6461 8.97402C13.6461 7.846 13.1807 6.76419 12.3524 5.96656C11.5241 5.16893 10.4007 4.72083 9.22928 4.72083Z" fill="#2E4049"/>
</svg>
