<svg width="19" height="18" viewBox="0 0 19 18" fill="none" xmlns="http://www.w3.org/2000/svg">
<path d="M9.63397 0C4.67726 0 0.658203 4.01727 0.658203 8.97177C0.658203 12.6446 2.87009 15.8007 6.03164 17.1905C6.0076 16.5657 6.02764 15.8127 6.18792 15.1318C6.36022 14.4029 7.34195 10.2414 7.34195 10.2414C7.34195 10.2414 7.05344 9.66868 7.05344 8.82357C7.05344 7.49383 7.82279 6.50053 8.78448 6.50053C9.60192 6.50053 9.99461 7.11333 9.99461 7.84629C9.99461 8.66737 9.46969 9.89297 9.20121 11.0305C8.97682 11.9837 9.67805 12.7567 10.6197 12.7567C12.3187 12.7567 13.4647 10.5739 13.4647 7.98647C13.4647 6.0199 12.1384 4.54997 9.73014 4.54997C7.00936 4.54997 5.31038 6.58063 5.31038 8.8476C5.31038 9.62863 5.54279 10.1814 5.90342 10.6059C6.06771 10.8022 6.09175 10.8823 6.03164 11.1066C5.98757 11.2708 5.8914 11.6673 5.84732 11.8275C5.78722 12.0558 5.60289 12.1359 5.39853 12.0518C4.14433 11.5391 3.5593 10.1693 3.5593 8.62331C3.5593 6.07597 5.71108 3.01996 9.97457 3.01996C13.4006 3.01996 15.6566 5.49921 15.6566 8.1587C15.6566 11.6793 13.6971 14.3068 10.812 14.3068C9.84234 14.3068 8.93274 13.7821 8.62019 13.1893C8.62019 13.1893 8.09928 15.256 7.98708 15.6565C7.79875 16.3494 7.4261 17.0383 7.0855 17.5791C7.9117 17.8227 8.76856 17.9468 9.62997 17.9475C14.5867 17.9475 18.6057 13.9303 18.6057 8.97577C18.6057 4.02127 14.5907 0 9.63397 0Z" fill="#2E4049"/>
</svg>
