<svg width="20" height="16" viewBox="0 0 20 16" fill="none" xmlns="http://www.w3.org/2000/svg">
<path d="M19.6576 2.19642C18.9475 2.50495 18.1962 2.70821 17.4275 2.79978C18.2354 2.32671 18.8429 1.57514 19.1362 0.686042C18.3724 1.13269 17.5381 1.44607 16.6691 1.61278C16.3032 1.22928 15.8631 0.924195 15.3756 0.71607C14.8881 0.507945 14.3634 0.401127 13.8333 0.402106C11.6872 0.402106 9.95051 2.11361 9.95051 4.22341C9.94899 4.51687 9.98262 4.80946 10.0507 5.09493C8.51178 5.02279 7.00488 4.63022 5.6264 3.94233C4.24791 3.25445 3.02819 2.2864 2.04527 1.10011C1.70043 1.68144 1.51807 2.34472 1.51723 3.02062C1.51723 4.34566 2.20853 5.51689 3.25239 6.20307C2.63393 6.18839 2.02815 6.0247 1.48647 5.7259V5.77322C1.48647 7.62669 2.82727 9.16862 4.60187 9.5196C4.26816 9.60855 3.92428 9.65363 3.57891 9.65368C3.33385 9.6541 3.08935 9.63033 2.84896 9.58269C3.3423 11.101 4.77815 12.2052 6.479 12.2367C5.09694 13.3018 3.40012 13.8775 1.65525 13.8733C1.34553 13.8728 1.0361 13.8544 0.728516 13.8181C2.50358 14.9515 4.56695 15.5511 6.67302 15.5453C13.825 15.5453 17.7323 9.72072 17.7323 4.66903C17.7323 4.5034 17.728 4.33777 17.7201 4.17608C18.4785 3.63663 19.1346 2.96625 19.6576 2.19642Z" fill="#2E4049"/>
</svg>
